<svg width="30" height="29" viewBox="0 0 30 29" fill="none" xmlns="http://www.w3.org/2000/svg">
<path d="M12.5 16.1111H0.833333C0.333333 16.1111 0 16.4333 0 16.9167V28.1944C0 28.6778 0.333333 29 0.833333 29H12.5C13 29 13.3333 28.6778 13.3333 28.1944V16.9167C13.3333 16.4333 13 16.1111 12.5 16.1111ZM11.6667 27.3889H1.66667V17.7222H11.6667V27.3889ZM12.5 0H0.833333C0.333333 0 0 0.322222 0 0.805556V12.0833C0 12.5667 0.333333 12.8889 0.833333 12.8889H12.5C13 12.8889 13.3333 12.5667 13.3333 12.0833V0.805556C13.3333 0.322222 13 0 12.5 0ZM11.6667 11.2778H1.66667V1.61111H11.6667V11.2778ZM29.1667 0H17.5C17 0 16.6667 0.322222 16.6667 0.805556V12.0833C16.6667 12.5667 17 12.8889 17.5 12.8889H29.1667C29.6667 12.8889 30 12.5667 30 12.0833V0.805556C30 0.322222 29.6667 0 29.1667 0ZM28.3333 11.2778H18.3333V1.61111H28.3333V11.2778ZM29.1667 21.75H24.1667V16.9167C24.1667 16.4333 23.8333 16.1111 23.3333 16.1111C22.8333 16.1111 22.5 16.4333 22.5 16.9167V21.75H17.5C17 21.75 16.6667 22.0722 16.6667 22.5556C16.6667 23.0389 17 23.3611 17.5 23.3611H22.5V28.1944C22.5 28.6778 22.8333 29 23.3333 29C23.8333 29 24.1667 28.6778 24.1667 28.1944V23.3611H29.1667C29.6667 23.3611 30 23.0389 30 22.5556C30 22.0722 29.6667 21.75 29.1667 21.75Z" fill="white"/>
</svg>
