<svg width="13" height="13" viewBox="0 0 13 13" fill="none" xmlns="http://www.w3.org/2000/svg">
<path d="M10.0417 0.125H1.54167C0.758958 0.125 0.125 0.758958 0.125 1.54167V11.4583C0.125 12.241 0.758958 12.875 1.54167 12.875H11.4583C12.241 12.875 12.875 12.241 12.875 11.4583V2.95833L10.0417 0.125ZM6.5 11.4583C5.32771 11.4583 4.375 10.5056 4.375 9.33333C4.375 8.16104 5.32771 7.20833 6.5 7.20833C7.67229 7.20833 8.625 8.16104 8.625 9.33333C8.625 10.5056 7.67229 11.4583 6.5 11.4583ZM8.625 4.375H1.54167V1.54167H8.625V4.375Z" fill="white"/>
</svg>
