<svg width="50" height="51" viewBox="0 0 50 51" fill="none" xmlns="http://www.w3.org/2000/svg">
<g opacity="0.5">
<path d="M24.4817 13.8488H23.5714V14.8165H24.4817V13.8488Z" fill="white"/>
<path d="M27.9714 15.4902L27.2397 14.8159H25.3964C25.6714 14.8159 25.8945 15.039 25.8945 15.314V15.4866" fill="white"/>
</g>
<g opacity="0.5">
<path d="M24.4854 20.9756H25.0372L25.7 21.7024H24.4854V20.9756Z" fill="white"/>
</g>
<path opacity="0.5" d="M24.4811 37.5409L25.4573 38.3348H24.4811V37.5409Z" fill="white"/>
<g opacity="0.5">
<path d="M24.5366 41.1232H22.0781V42.125H24.5366V41.1232Z" fill="white"/>
</g>
<g opacity="0.5">
<path d="M27.6915 42.125H25.7451V42.8372H28.4226L27.6915 42.125Z" fill="white"/>
</g>
<g opacity="0.5">
<path d="M24.1537 44.3427H23.8768L23.1427 45.075H24.8086L24.1537 44.3427Z" fill="white"/>
</g>
<path d="M21.7921 25.5457H21.8561V25.4207C21.2323 25.1311 21.3061 24.3244 21.3061 24.3244H21.3031H21.0006H20.9976C20.9976 24.3244 21.072 25.1311 20.4476 25.4207V25.5457H20.5116V31.6933H20.511H20.447V31.8183C21.0707 32.1079 20.997 32.9146 20.997 32.9146H21H21.3024H21.3055C21.3055 32.9146 21.2311 32.1079 21.8555 31.8183V31.6933H21.7915H21.7909V25.5457H21.7921Z" fill="white"/>
<path d="M25.1469 26.0293H25.211V25.9043C24.5872 25.6146 24.661 24.8079 24.661 24.8079H24.6579H24.3555H24.3524C24.3524 24.8079 24.4268 25.6146 23.8024 25.9043V26.0293H23.8665V28.3396H23.8658H23.8018V28.4646C24.4256 28.7543 24.3518 29.561 24.3518 29.561H24.3549H24.6573H24.6604C24.6604 29.561 24.586 28.7543 25.2104 28.4646V28.3396H25.1463H25.1457V26.0293H25.1469Z" fill="white"/>
<path d="M23.5671 27.9232H23.6329V27.7982C22.9921 27.5086 23.0683 26.7018 23.0683 26.7018H23.0646H22.7543H22.7506C22.7506 26.7018 22.8268 27.5086 22.186 27.7982V27.9232H22.2518H22.2524V30.4183H22.2518H22.186V30.5433C22.8268 30.8329 22.7506 31.6396 22.7506 31.6396H22.7543H23.0646H23.0683C23.0683 31.6396 22.9921 30.8329 23.6329 30.5433V30.4183H23.5671H23.5665L23.5671 27.9232Z" fill="white"/>
<path d="M26.0982 30.7091H26.1622V30.5841C25.5384 30.2945 25.6122 29.4878 25.6122 29.4878H25.6091H25.3067H25.3037C25.3037 29.4878 25.3781 30.2945 24.7537 30.5841V30.7091H24.8171V32.914H24.7531V33.039C24.775 33.0494 24.7963 33.0604 24.8171 33.0719V33.0744H24.8207C25.3713 33.3884 25.3031 34.1354 25.3031 34.1354H25.3061H25.6085H25.6116C25.6116 34.1354 25.5433 33.3884 26.0939 33.0744H26.0963V33.0725C26.1171 33.061 26.1384 33.0494 26.161 33.039V32.914H26.097H26.0957V30.7091H26.0982Z" fill="white"/>
<path d="M27.7 27.9232H27.764V27.7982C27.1402 27.5086 27.214 26.7018 27.214 26.7018H27.211H26.9085H26.9055C26.9055 26.7018 26.9799 27.5086 26.3555 27.7982V27.9232H26.4195V30.4183H26.3555V30.5433C26.9792 30.8329 26.9055 31.6396 26.9055 31.6396H26.9085H27.211H27.214C27.214 31.6396 27.1396 30.8329 27.764 30.5433V30.4183H27.7H27.6988V27.9232H27.7Z" fill="white"/>
<path d="M29.4579 25.5457H29.5219V25.4207C28.8982 25.1311 28.9719 24.3244 28.9719 24.3244H28.9689H28.6665H28.6634C28.6634 24.3244 28.7378 25.1311 28.1134 25.4207V25.5457H28.1774V30.8464H28.1134V30.9714C28.7372 31.261 28.6634 32.0677 28.6634 32.0677H28.6665H28.9689H28.9719C28.9719 32.0677 28.8976 31.261 29.5219 30.9714V30.8464H29.4579H29.4567V25.5457H29.4579Z" fill="white"/>
<g opacity="0.5">
<path d="M24.4817 16.5951H22.4549V17.747H24.4817V16.5951Z" fill="white"/>
<path d="M26.4775 17.7463H25.3342C25.7061 17.7463 26.0073 18.0469 26.0073 18.4177H27.1506L26.4775 17.7463Z" fill="white"/>
</g>
<path d="M36.2671 34.7244L35.0549 20.4037C34.9817 19.5384 34.6475 18.7524 34.1347 18.1183V17.9476C34.139 17.5378 34.5719 17.5524 34.5719 17.5524C35.0061 17.5524 35.3579 17.2018 35.3579 16.7689C35.3579 16.336 35.0061 15.9854 34.5719 15.9854H34.1347V13.3293C34.1347 8.47865 30.0323 4.64633 24.9713 4.64633C19.9103 4.64633 15.8079 8.47926 15.8079 13.3293V15.9847H15.3707C14.9366 15.9847 14.5847 16.3354 14.5847 16.7683C14.5847 17.2012 14.9366 17.5518 15.3707 17.5518C15.3707 17.5518 15.8079 17.5372 15.8079 17.9524V18.1902C15.3274 18.8116 15.0158 19.5707 14.9451 20.4037L13.7329 34.7244C13.6103 36.1756 14.3463 37.5658 15.6213 38.2896L19.439 40.5036V41.7921H19.5756C18.7097 41.7921 18.0073 42.4939 18.0073 43.3604V44.2786L16.6927 45.4213C16.3079 45.7329 16.5286 46.3536 17.0244 46.3536H32.9134C33.4091 46.3536 33.6256 45.7286 33.2353 45.4238L31.8701 44.2658V43.3604C31.8701 42.4945 31.1683 41.7921 30.3018 41.7921H30.4494V40.5378L34.3792 38.2902C35.6536 37.5665 36.3902 36.1756 36.2671 34.7244ZM17.0262 13.3689C17.0262 9.17072 20.5927 5.85365 24.9927 5.85365C29.3927 5.85365 32.9591 9.17072 32.9591 13.3689V17.111C32.3262 16.7439 31.5914 16.5335 30.8097 16.5335H30.528V16.2195C30.528 15.4439 29.8975 14.8158 29.1195 14.8158H28.9774V13.4482H29.1018C29.5701 13.4482 29.95 13.0695 29.95 12.6024V12.589C29.95 12.1219 29.5701 11.7433 29.1018 11.7433H25.6896C25.9408 11.5366 26.1012 11.2238 26.1012 10.8738C26.1012 10.2512 25.5951 9.74694 24.9713 9.74694C24.3475 9.74694 23.8414 10.2512 23.8414 10.8738C23.8414 11.2238 24.0018 11.5366 24.253 11.7433H20.8408C20.3725 11.7433 19.9927 12.1219 19.9927 12.589V12.6024C19.9927 13.0695 20.3725 13.4482 20.8408 13.4482H20.9756V14.8158H20.8232C20.0451 14.8158 19.4146 15.4445 19.4146 16.2195V16.5335H19.1908C18.403 16.5335 17.6628 16.7476 17.0262 17.1201V13.3689ZM22.2896 35.4512C20.0622 35.4512 18.6829 33.8238 18.8872 31.5847L19.4457 25.4652C19.5725 24.075 20.3622 23.2317 21.7445 23.2317H27.9878C29.3951 23.2317 30.2707 24.0219 30.4201 25.4347L31.1067 31.4408C31.3475 33.7134 29.9488 35.4512 27.6847 35.4512H22.2896ZM25.4488 38.3347H24.4725H23.3073V37.5402H24.4725L25.4488 38.3347ZM25.2927 14.8158H25.3963H27.2396L27.9713 15.4902H25.2927V15.4872H20.8786C20.8786 15.1165 21.1792 14.8165 21.5494 14.8165H22.3494V13.8488H23.2597H23.5713H24.4817V14.8165H25.2927V14.8158ZM22.4549 16.5951H24.4817V17.7469H25.3341H26.4774L26.814 18.0823L27.1506 18.4177H26.0073H22.4549H20.6323L20.8299 16.5945H22.4549V16.5951ZM25.6939 21.7024H24.4792H21.9085V20.9756H24.4786H25.0305L25.6939 21.7024ZM16.6756 36.2799C16.1969 36.003 15.9219 35.4768 15.9695 34.9286L17.2225 20.5799C17.3085 19.5951 18.1116 18.8317 19.0939 18.7786V20.4067C19.0939 20.6756 19.3122 20.8939 19.5811 20.8939H20.5146V21.8116C19.136 22.1878 18.0756 23.4896 17.9402 24.9524L17.3085 31.7652C17.0518 34.5305 19.211 36.9207 21.989 36.9793V38.5732H20.6439L16.6756 36.2799ZM23.1427 45.075H17.6384L18.2951 44.4195H24.1902L24.8085 45.075H23.1427ZM26.4457 42.8372H25.7451H19.4707C19.4707 42.4439 19.7896 42.1256 20.1823 42.1256H20.8756V41.1238H22.0774H22.1579H24.5366V42.1256H25.7451H25.9469H27.6908L28.4219 42.8372H26.4457ZM33.4055 36.286L29.3384 38.5793H28.0268V36.9768C30.8207 36.8829 32.9683 34.4469 32.6689 31.661L31.9518 24.9902C31.7969 23.5476 30.7683 22.2689 29.4225 21.8482V20.8933H30.4549C30.6561 20.8933 30.8189 20.7305 30.8189 20.5293V18.7744C31.8738 18.7762 32.753 19.5597 32.8445 20.5793L34.1286 34.9329C34.1786 35.4823 33.8963 36.0091 33.4055 36.286Z" fill="white"/>
</svg>
